<svg width="24" height="24" viewBox="0 0 24 24" fill="none" xmlns="http://www.w3.org/2000/svg">
<path d="M11 5.99997H13.6929C13.8829 5.99997 14.0565 5.89231 14.1409 5.72211L14.8191 4.3544C14.9221 4.14669 15.1533 4.03761 15.3761 4.10152C16.0315 4.28946 17.4069 4.74289 18.5042 5.49997C22.3682 8.3972 22.0078 14.8897 21.9786 16.2609C21.9768 16.3446 21.9554 16.4271 21.9142 16.4999C19.9311 20 16.491 20 16.491 20L15.3248 17.5738M13 5.99997H10.3119C10.1224 5.99997 9.94909 5.89277 9.86449 5.72312L9.18127 4.35317C9.07799 4.14608 8.84722 4.03749 8.62476 4.10127C7.96978 4.28905 6.59358 4.74254 5.49577 5.49997C1.6318 8.3972 1.99218 14.8897 2.0214 16.2609C2.02319 16.3446 2.04456 16.4271 2.08583 16.4999C4.06894 20 7.50897 20 7.50897 20L8.67893 17.5733M7.00128 17C7.60094 17.2248 8.15567 17.4159 8.67893 17.5733M17.0038 17C16.4036 17.225 15.8485 17.4163 15.3248 17.5738M8.67893 17.5733C11.1232 18.3087 12.8808 18.3089 15.3248 17.5738M10.0021 12C10.0021 12.5523 9.55422 13 9.00179 13C8.44937 13 8.00154 12.5523 8.00154 12C8.00154 11.4477 8.44937 11 9.00179 11C9.55422 11 10.0021 11.4477 10.0021 12ZM16.0036 12C16.0036 12.5523 15.5558 13 15.0033 13C14.4509 13 14.0031 12.5523 14.0031 12C14.0031 11.4477 14.4509 11 15.0033 11C15.5558 11 16.0036 11.4477 16.0036 12Z" stroke="#303A47" stroke-width="2" stroke-linecap="round" stroke-linejoin="round"/>
</svg>
